<svg width="49" height="49" viewBox="0 0 49 49" fill="none" xmlns="http://www.w3.org/2000/svg">
<path d="M49 24.5C49 38.031 38.031 49 24.5 49C10.969 49 0 38.031 0 24.5C0 10.969 10.969 0 24.5 0C38.031 0 49 10.969 49 24.5Z" fill="#AF7CA0"/>
<path d="M28.5469 32.2796H25.8694V22.5781C25.8694 22.402 25.7394 22.2578 25.5804 22.2578H23.4124C23.2534 22.2578 23.1233 22.402 23.1233 22.5781V32.2796H20.4531C20.211 32.2796 20.0773 32.5879 20.2255 32.7961L24.2724 38.4696C24.2994 38.5079 24.334 38.5389 24.3734 38.5602C24.4128 38.5815 24.4561 38.5925 24.5 38.5925C24.5439 38.5925 24.5872 38.5815 24.6266 38.5602C24.6661 38.5389 24.7006 38.5079 24.7276 38.4696L28.7745 32.7961C28.9227 32.5879 28.789 32.2796 28.5469 32.2796Z" fill="white"/>
<path d="M35.3182 18.6823C33.6633 13.8456 29.4466 10.4062 24.5072 10.4062C19.5679 10.4062 15.3512 13.8416 13.6963 18.6783C10.5997 19.5792 8.3125 22.7063 8.3125 26.4219C8.3125 30.8462 11.5464 34.4297 15.5354 34.4297H16.9844C17.1434 34.4297 17.2734 34.2855 17.2734 34.1094V31.707C17.2734 31.5309 17.1434 31.3867 16.9844 31.3867H15.5354C14.3178 31.3867 13.1724 30.8502 12.3196 29.8772C11.4705 28.9083 11.0188 27.603 11.0586 26.2497C11.0911 25.1927 11.4163 24.1997 12.0053 23.3629C12.6087 22.5101 13.4542 21.8895 14.3937 21.6132L15.7631 21.2168L16.2653 19.7514C16.5761 18.8385 17.0097 17.9856 17.5553 17.2129C18.0939 16.447 18.732 15.7737 19.4486 15.2149C20.9337 14.0578 22.6825 13.4452 24.5072 13.4452C26.3319 13.4452 28.0808 14.0578 29.5658 15.2149C30.2849 15.7755 30.9208 16.4481 31.4592 17.2129C32.0048 17.9856 32.4384 18.8425 32.7491 19.7514L33.2478 21.2128L34.6136 21.6132C36.572 22.1978 37.9414 24.1717 37.9414 26.4219C37.9414 27.7472 37.4753 28.9964 36.6298 29.9333C36.2151 30.3955 35.7219 30.7619 35.1786 31.0114C34.6352 31.2609 34.0527 31.3884 33.4646 31.3867H32.0156C31.8566 31.3867 31.7266 31.5309 31.7266 31.707V34.1094C31.7266 34.2855 31.8566 34.4297 32.0156 34.4297H33.4646C37.4536 34.4297 40.6875 30.8462 40.6875 26.4219C40.6875 22.7103 38.4075 19.5872 35.3182 18.6823Z" fill="white"/>
</svg>
